<svg width="39" height="39" viewBox="0 0 39 39" fill="none" xmlns="http://www.w3.org/2000/svg">
<rect width="39" height="39" rx="19.5" fill="#FAFAFA"/>
<path d="M10.9 17.5L9.794 7.28H11.152L11.838 14.616C11.8567 14.8027 11.8707 15.008 11.88 15.232C11.8987 15.456 11.9127 15.6753 11.922 15.89C11.9407 16.1047 11.95 16.2913 11.95 16.45C11.9687 16.2913 11.9873 16.1047 12.006 15.89C12.0247 15.6753 12.0433 15.456 12.062 15.232C12.09 15.008 12.118 14.8027 12.146 14.616L13.028 7.28H14.428L15.254 14.616C15.2727 14.8027 15.2913 15.008 15.31 15.232C15.338 15.456 15.366 15.6753 15.394 15.89C15.422 16.1047 15.4407 16.2913 15.45 16.45C15.4593 16.2913 15.4687 16.1047 15.478 15.89C15.4967 15.6753 15.5153 15.456 15.534 15.232C15.5527 15.008 15.5713 14.8027 15.59 14.616L16.29 7.28H17.606L16.458 17.5H14.708L13.882 10.066C13.8633 9.87 13.8447 9.66467 13.826 9.45C13.8073 9.226 13.7887 9.01133 13.77 8.806C13.7513 8.59133 13.7327 8.414 13.714 8.274C13.7047 8.414 13.6907 8.59133 13.672 8.806C13.6533 9.01133 13.6347 9.226 13.616 9.45C13.5973 9.66467 13.574 9.87 13.546 10.066L12.664 17.5H10.9Z" fill="#18181B"/>
<path d="M24.742 17.64C24.0513 17.64 23.4587 17.528 22.964 17.304C22.4693 17.0707 22.0867 16.744 21.816 16.324C21.5453 15.8947 21.41 15.386 21.41 14.798H22.908C22.908 15.2647 23.0713 15.6333 23.398 15.904C23.7247 16.1653 24.1773 16.296 24.756 16.296C25.2973 16.296 25.722 16.1653 26.03 15.904C26.338 15.6427 26.492 15.2833 26.492 14.826C26.492 14.4433 26.3847 14.112 26.17 13.832C25.9647 13.552 25.666 13.3607 25.274 13.258L23.986 12.88C23.2393 12.6653 22.6607 12.3013 22.25 11.788C21.8487 11.2653 21.648 10.6447 21.648 9.926C21.648 9.366 21.774 8.876 22.026 8.456C22.278 8.036 22.6373 7.70933 23.104 7.476C23.5707 7.24267 24.1213 7.126 24.756 7.126C25.6893 7.126 26.436 7.378 26.996 7.882C27.5653 8.386 27.8547 9.06267 27.864 9.912H26.352C26.352 9.464 26.2073 9.114 25.918 8.862C25.638 8.60067 25.2413 8.47 24.728 8.47C24.2333 8.47 23.846 8.59133 23.566 8.834C23.286 9.06733 23.146 9.39867 23.146 9.828C23.146 10.2107 23.2487 10.542 23.454 10.822C23.6687 11.102 23.972 11.298 24.364 11.41L25.666 11.802C26.4127 12.0073 26.9867 12.3713 27.388 12.894C27.7893 13.4167 27.99 14.042 27.99 14.77C27.99 15.3393 27.8547 15.8433 27.584 16.282C27.3133 16.7113 26.9353 17.0473 26.45 17.29C25.9647 17.5233 25.3953 17.64 24.742 17.64Z" fill="#18181B"/>
<path d="M15.31 34.02L13.798 31.514L14.022 31.626C13.9847 31.626 13.938 31.626 13.882 31.626C13.826 31.6353 13.7653 31.64 13.7 31.64C13.0653 31.64 12.51 31.514 12.034 31.262C11.558 31.01 11.1893 30.66 10.928 30.212C10.6667 29.7547 10.536 29.2227 10.536 28.616V24.164C10.536 23.548 10.6667 23.016 10.928 22.568C11.1893 22.12 11.558 21.77 12.034 21.518C12.51 21.266 13.0653 21.14 13.7 21.14C14.344 21.14 14.8993 21.266 15.366 21.518C15.842 21.77 16.2107 22.12 16.472 22.568C16.7333 23.016 16.864 23.548 16.864 24.164V28.616C16.864 29.232 16.7287 29.7733 16.458 30.24C16.1967 30.7067 15.8187 31.0567 15.324 31.29L16.99 34.02H15.31ZM13.7 30.31C14.2133 30.31 14.6147 30.156 14.904 29.848C15.2027 29.54 15.352 29.1293 15.352 28.616V24.164C15.352 23.6413 15.2027 23.2307 14.904 22.932C14.6147 22.624 14.2133 22.47 13.7 22.47C13.196 22.47 12.7947 22.624 12.496 22.932C12.1973 23.2307 12.048 23.6413 12.048 24.164V28.616C12.048 29.1293 12.1927 29.54 12.482 29.848C12.7807 30.156 13.1867 30.31 13.7 30.31Z" fill="#18181B"/>
<path d="M22.026 31.5V21.28H23.538V30.114H28.004V31.5H22.026Z" fill="#18181B"/>
</svg>
